<mxfile host="app.diagrams.net" modified="2023-05-26T01:50:22.827Z" agent="Mozilla/5.0 (Macintosh; Intel Mac OS X 10_15_7) AppleWebKit/605.1.15 (KHTML, like Gecko) Version/16.3 Safari/605.1.15" etag="B3kothcRJxxhUvQLQpbh" version="21.3.4" type="github">
  <diagram name="Page-1" id="ihn33mUhVWSCW6usR94j">
    <mxGraphModel dx="1597" dy="1360" grid="0" gridSize="10" guides="1" tooltips="1" connect="1" arrows="1" fold="1" page="0" pageScale="1" pageWidth="850" pageHeight="1100" math="0" shadow="0">
      <root>
        <mxCell id="0" />
        <mxCell id="1" parent="0" />
        <mxCell id="wO_XfWsJBFEoIuL399cG-1" value="이용자" style="shape=umlActor;verticalLabelPosition=bottom;verticalAlign=top;html=1;outlineConnect=0;fontSize=16;" vertex="1" parent="1">
          <mxGeometry x="-234" y="147" width="30" height="60" as="geometry" />
        </mxCell>
        <mxCell id="wO_XfWsJBFEoIuL399cG-2" value="게시판 서비스" style="shape=umlFrame;whiteSpace=wrap;html=1;pointerEvents=0;fontSize=16;width=134;height=37;" vertex="1" parent="1">
          <mxGeometry x="-105" y="-113" width="581" height="629" as="geometry" />
        </mxCell>
        <mxCell id="wO_XfWsJBFEoIuL399cG-17" style="edgeStyle=none;curved=1;rounded=0;orthogonalLoop=1;jettySize=auto;html=1;exitX=0;exitY=0.5;exitDx=0;exitDy=0;entryX=1;entryY=0.3333333333333333;entryDx=0;entryDy=0;entryPerimeter=0;fontSize=12;startSize=8;endSize=8;endArrow=none;endFill=0;" edge="1" parent="1" source="wO_XfWsJBFEoIuL399cG-4" target="wO_XfWsJBFEoIuL399cG-1">
          <mxGeometry relative="1" as="geometry" />
        </mxCell>
        <mxCell id="wO_XfWsJBFEoIuL399cG-4" value="회원 가입" style="rounded=1;whiteSpace=wrap;html=1;arcSize=40;fontColor=#000000;fillColor=#ffffc0;strokeColor=#ff0000;fontSize=16;" vertex="1" parent="1">
          <mxGeometry x="-34" y="147" width="120" height="40" as="geometry" />
        </mxCell>
        <mxCell id="wO_XfWsJBFEoIuL399cG-19" style="edgeStyle=none;curved=1;rounded=0;orthogonalLoop=1;jettySize=auto;html=1;exitX=0;exitY=0.5;exitDx=0;exitDy=0;fontSize=12;startSize=8;endSize=8;entryX=1;entryY=0.3333333333333333;entryDx=0;entryDy=0;entryPerimeter=0;endArrow=none;endFill=0;" edge="1" parent="1" source="wO_XfWsJBFEoIuL399cG-6" target="wO_XfWsJBFEoIuL399cG-1">
          <mxGeometry relative="1" as="geometry">
            <mxPoint x="-201.1428571428571" y="171.42857142857156" as="targetPoint" />
          </mxGeometry>
        </mxCell>
        <mxCell id="wO_XfWsJBFEoIuL399cG-25" style="edgeStyle=none;curved=1;rounded=0;orthogonalLoop=1;jettySize=auto;html=1;exitX=1;exitY=0.5;exitDx=0;exitDy=0;entryX=0.5;entryY=1;entryDx=0;entryDy=0;fontSize=12;startSize=8;endSize=8;dashed=1;" edge="1" parent="1" source="wO_XfWsJBFEoIuL399cG-6" target="wO_XfWsJBFEoIuL399cG-9">
          <mxGeometry relative="1" as="geometry" />
        </mxCell>
        <mxCell id="wO_XfWsJBFEoIuL399cG-35" style="edgeStyle=none;curved=1;rounded=0;orthogonalLoop=1;jettySize=auto;html=1;exitX=1;exitY=0.5;exitDx=0;exitDy=0;entryX=0;entryY=0.5;entryDx=0;entryDy=0;fontSize=12;startSize=8;endSize=8;endArrow=none;endFill=0;" edge="1" parent="1" source="wO_XfWsJBFEoIuL399cG-6" target="wO_XfWsJBFEoIuL399cG-31">
          <mxGeometry relative="1" as="geometry" />
        </mxCell>
        <mxCell id="wO_XfWsJBFEoIuL399cG-6" value="게시판 보기" style="rounded=1;whiteSpace=wrap;html=1;arcSize=40;fontColor=#000000;fillColor=#ffffc0;strokeColor=#ff0000;fontSize=16;" vertex="1" parent="1">
          <mxGeometry x="-34" y="266" width="120" height="40" as="geometry" />
        </mxCell>
        <mxCell id="wO_XfWsJBFEoIuL399cG-20" style="edgeStyle=none;curved=1;rounded=0;orthogonalLoop=1;jettySize=auto;html=1;exitX=0;exitY=0.5;exitDx=0;exitDy=0;entryX=1;entryY=0.3333333333333333;entryDx=0;entryDy=0;entryPerimeter=0;fontSize=12;startSize=8;endSize=8;endArrow=none;endFill=0;" edge="1" parent="1" source="wO_XfWsJBFEoIuL399cG-7" target="wO_XfWsJBFEoIuL399cG-1">
          <mxGeometry relative="1" as="geometry" />
        </mxCell>
        <mxCell id="wO_XfWsJBFEoIuL399cG-26" style="edgeStyle=none;curved=1;rounded=0;orthogonalLoop=1;jettySize=auto;html=1;exitX=1;exitY=0.5;exitDx=0;exitDy=0;fontSize=12;startSize=8;endSize=8;entryX=0.5;entryY=1;entryDx=0;entryDy=0;dashed=1;" edge="1" parent="1" source="wO_XfWsJBFEoIuL399cG-7" target="wO_XfWsJBFEoIuL399cG-9">
          <mxGeometry relative="1" as="geometry" />
        </mxCell>
        <mxCell id="wO_XfWsJBFEoIuL399cG-36" style="edgeStyle=none;curved=1;rounded=0;orthogonalLoop=1;jettySize=auto;html=1;exitX=1;exitY=0.5;exitDx=0;exitDy=0;entryX=0;entryY=0.5;entryDx=0;entryDy=0;fontSize=12;startSize=8;endSize=8;endArrow=none;endFill=0;" edge="1" parent="1" source="wO_XfWsJBFEoIuL399cG-7" target="wO_XfWsJBFEoIuL399cG-31">
          <mxGeometry relative="1" as="geometry">
            <Array as="points">
              <mxPoint x="363" y="311" />
            </Array>
          </mxGeometry>
        </mxCell>
        <mxCell id="wO_XfWsJBFEoIuL399cG-7" value="게시글 보기" style="rounded=1;whiteSpace=wrap;html=1;arcSize=40;fontColor=#000000;fillColor=#ffffc0;strokeColor=#ff0000;fontSize=16;" vertex="1" parent="1">
          <mxGeometry x="-34" y="385" width="120" height="40" as="geometry" />
        </mxCell>
        <mxCell id="wO_XfWsJBFEoIuL399cG-8" style="edgeStyle=none;curved=1;rounded=0;orthogonalLoop=1;jettySize=auto;html=1;exitX=0.5;exitY=1;exitDx=0;exitDy=0;fontSize=12;startSize=8;endSize=8;" edge="1" parent="1" source="wO_XfWsJBFEoIuL399cG-6" target="wO_XfWsJBFEoIuL399cG-6">
          <mxGeometry relative="1" as="geometry" />
        </mxCell>
        <mxCell id="wO_XfWsJBFEoIuL399cG-18" style="edgeStyle=none;curved=1;rounded=0;orthogonalLoop=1;jettySize=auto;html=1;exitX=0;exitY=0.25;exitDx=0;exitDy=0;entryX=1;entryY=0.3333333333333333;entryDx=0;entryDy=0;entryPerimeter=0;fontSize=12;startSize=8;endSize=8;endArrow=none;endFill=0;" edge="1" parent="1" source="wO_XfWsJBFEoIuL399cG-9" target="wO_XfWsJBFEoIuL399cG-1">
          <mxGeometry relative="1" as="geometry" />
        </mxCell>
        <mxCell id="wO_XfWsJBFEoIuL399cG-9" value="회원 로그인" style="rounded=1;whiteSpace=wrap;html=1;arcSize=40;fontColor=#000000;fillColor=#ffffc0;strokeColor=#ff0000;fontSize=16;" vertex="1" parent="1">
          <mxGeometry x="76" y="2" width="120" height="40" as="geometry" />
        </mxCell>
        <mxCell id="wO_XfWsJBFEoIuL399cG-21" style="edgeStyle=none;curved=1;rounded=0;orthogonalLoop=1;jettySize=auto;html=1;fontSize=12;dashed=1;entryX=0;entryY=0.5;entryDx=0;entryDy=0;exitX=1;exitY=0.5;exitDx=0;exitDy=0;" edge="1" parent="1" source="wO_XfWsJBFEoIuL399cG-9" target="wO_XfWsJBFEoIuL399cG-10">
          <mxGeometry relative="1" as="geometry" />
        </mxCell>
        <mxCell id="wO_XfWsJBFEoIuL399cG-23" value="&amp;lt;&amp;lt; include &amp;gt;&amp;gt;" style="edgeLabel;html=1;align=center;verticalAlign=middle;resizable=0;points=[];fontSize=16;" vertex="1" connectable="0" parent="wO_XfWsJBFEoIuL399cG-21">
          <mxGeometry x="0.3835" y="1" relative="1" as="geometry">
            <mxPoint x="-25" as="offset" />
          </mxGeometry>
        </mxCell>
        <mxCell id="wO_XfWsJBFEoIuL399cG-34" style="edgeStyle=none;curved=1;rounded=0;orthogonalLoop=1;jettySize=auto;html=1;exitX=1;exitY=0.5;exitDx=0;exitDy=0;entryX=0;entryY=0.5;entryDx=0;entryDy=0;fontSize=12;startSize=8;endSize=8;endArrow=none;endFill=0;" edge="1" parent="1" source="wO_XfWsJBFEoIuL399cG-10" target="wO_XfWsJBFEoIuL399cG-31">
          <mxGeometry relative="1" as="geometry" />
        </mxCell>
        <mxCell id="wO_XfWsJBFEoIuL399cG-10" value="인증" style="rounded=1;whiteSpace=wrap;html=1;arcSize=40;fontColor=#000000;fillColor=#ffffc0;strokeColor=#ff0000;fontSize=16;" vertex="1" parent="1">
          <mxGeometry x="334" y="-41.5" width="120" height="40" as="geometry" />
        </mxCell>
        <mxCell id="wO_XfWsJBFEoIuL399cG-22" style="edgeStyle=none;curved=1;rounded=0;orthogonalLoop=1;jettySize=auto;html=1;exitX=0;exitY=0.5;exitDx=0;exitDy=0;entryX=1;entryY=0.5;entryDx=0;entryDy=0;fontSize=12;startSize=8;endSize=8;dashed=1;" edge="1" parent="1" source="wO_XfWsJBFEoIuL399cG-12" target="wO_XfWsJBFEoIuL399cG-9">
          <mxGeometry relative="1" as="geometry" />
        </mxCell>
        <mxCell id="wO_XfWsJBFEoIuL399cG-24" value="&amp;lt;&amp;lt; extend &amp;gt;&amp;gt;" style="edgeLabel;html=1;align=center;verticalAlign=middle;resizable=0;points=[];fontSize=16;" vertex="1" connectable="0" parent="wO_XfWsJBFEoIuL399cG-22">
          <mxGeometry x="0.2673" y="-2" relative="1" as="geometry">
            <mxPoint x="20" y="11" as="offset" />
          </mxGeometry>
        </mxCell>
        <mxCell id="wO_XfWsJBFEoIuL399cG-12" value="실패" style="rounded=1;whiteSpace=wrap;html=1;arcSize=40;fontColor=#000000;fillColor=#ffffc0;strokeColor=#ff0000;fontSize=16;" vertex="1" parent="1">
          <mxGeometry x="334" y="45.5" width="120" height="40" as="geometry" />
        </mxCell>
        <mxCell id="wO_XfWsJBFEoIuL399cG-27" style="edgeStyle=none;curved=1;rounded=0;orthogonalLoop=1;jettySize=auto;html=1;exitX=0;exitY=0.5;exitDx=0;exitDy=0;entryX=1;entryY=0.5;entryDx=0;entryDy=0;fontSize=12;startSize=8;endSize=8;dashed=1;" edge="1" parent="1" source="wO_XfWsJBFEoIuL399cG-13" target="wO_XfWsJBFEoIuL399cG-6">
          <mxGeometry relative="1" as="geometry">
            <mxPoint x="133" y="276.9999999999998" as="targetPoint" />
          </mxGeometry>
        </mxCell>
        <mxCell id="wO_XfWsJBFEoIuL399cG-13" value="게시판 정렬" style="rounded=1;whiteSpace=wrap;html=1;arcSize=40;fontColor=#000000;fillColor=#ffffc0;strokeColor=#ff0000;fontSize=16;" vertex="1" parent="1">
          <mxGeometry x="171" y="187" width="120" height="40" as="geometry" />
        </mxCell>
        <mxCell id="wO_XfWsJBFEoIuL399cG-28" style="edgeStyle=none;curved=1;rounded=0;orthogonalLoop=1;jettySize=auto;html=1;exitX=0;exitY=0.5;exitDx=0;exitDy=0;fontSize=12;startSize=8;endSize=8;entryX=1;entryY=0.5;entryDx=0;entryDy=0;dashed=1;" edge="1" parent="1" source="wO_XfWsJBFEoIuL399cG-14" target="wO_XfWsJBFEoIuL399cG-6">
          <mxGeometry relative="1" as="geometry">
            <mxPoint x="133" y="276.9999999999998" as="targetPoint" />
          </mxGeometry>
        </mxCell>
        <mxCell id="wO_XfWsJBFEoIuL399cG-14" value="게시글 검색" style="rounded=1;whiteSpace=wrap;html=1;arcSize=40;fontColor=#000000;fillColor=#ffffc0;strokeColor=#ff0000;fontSize=16;" vertex="1" parent="1">
          <mxGeometry x="171" y="276" width="120" height="40" as="geometry" />
        </mxCell>
        <mxCell id="wO_XfWsJBFEoIuL399cG-29" style="edgeStyle=none;curved=1;rounded=0;orthogonalLoop=1;jettySize=auto;html=1;exitX=0;exitY=0.5;exitDx=0;exitDy=0;entryX=1;entryY=0.5;entryDx=0;entryDy=0;fontSize=12;startSize=8;endSize=8;dashed=1;" edge="1" parent="1" source="wO_XfWsJBFEoIuL399cG-15" target="wO_XfWsJBFEoIuL399cG-7">
          <mxGeometry relative="1" as="geometry" />
        </mxCell>
        <mxCell id="wO_XfWsJBFEoIuL399cG-37" style="edgeStyle=none;curved=1;rounded=0;orthogonalLoop=1;jettySize=auto;html=1;exitX=1;exitY=0.5;exitDx=0;exitDy=0;entryX=0;entryY=0.5;entryDx=0;entryDy=0;fontSize=12;startSize=8;endSize=8;endArrow=none;endFill=0;" edge="1" parent="1" source="wO_XfWsJBFEoIuL399cG-15" target="wO_XfWsJBFEoIuL399cG-31">
          <mxGeometry relative="1" as="geometry" />
        </mxCell>
        <mxCell id="wO_XfWsJBFEoIuL399cG-15" value="게시글 쓰기, 수정 삭제" style="rounded=1;whiteSpace=wrap;html=1;arcSize=40;fontColor=#000000;fillColor=#ffffc0;strokeColor=#ff0000;fontSize=16;" vertex="1" parent="1">
          <mxGeometry x="174" y="385" width="120" height="40" as="geometry" />
        </mxCell>
        <mxCell id="wO_XfWsJBFEoIuL399cG-30" style="edgeStyle=none;curved=1;rounded=0;orthogonalLoop=1;jettySize=auto;html=1;exitX=0;exitY=0.5;exitDx=0;exitDy=0;fontSize=12;startSize=8;endSize=8;entryX=1;entryY=0.5;entryDx=0;entryDy=0;dashed=1;" edge="1" parent="1" source="wO_XfWsJBFEoIuL399cG-16" target="wO_XfWsJBFEoIuL399cG-7">
          <mxGeometry relative="1" as="geometry" />
        </mxCell>
        <mxCell id="wO_XfWsJBFEoIuL399cG-38" style="edgeStyle=none;curved=1;rounded=0;orthogonalLoop=1;jettySize=auto;html=1;exitX=1;exitY=0.5;exitDx=0;exitDy=0;fontSize=12;startSize=8;endSize=8;entryX=0;entryY=0.5;entryDx=0;entryDy=0;endArrow=none;endFill=0;" edge="1" parent="1" source="wO_XfWsJBFEoIuL399cG-16" target="wO_XfWsJBFEoIuL399cG-31">
          <mxGeometry relative="1" as="geometry">
            <mxPoint x="603.1428571428573" y="218.57142857142867" as="targetPoint" />
          </mxGeometry>
        </mxCell>
        <mxCell id="wO_XfWsJBFEoIuL399cG-16" value="댓글 보기, 쓰기, 수정, 삭제" style="rounded=1;whiteSpace=wrap;html=1;arcSize=40;fontColor=#000000;fillColor=#ffffc0;strokeColor=#ff0000;fontSize=16;" vertex="1" parent="1">
          <mxGeometry x="171" y="451" width="120" height="40" as="geometry" />
        </mxCell>
        <mxCell id="wO_XfWsJBFEoIuL399cG-31" value="DB" style="html=1;dropTarget=0;whiteSpace=wrap;fontSize=16;" vertex="1" parent="1">
          <mxGeometry x="631" y="122" width="104" height="90" as="geometry" />
        </mxCell>
        <mxCell id="wO_XfWsJBFEoIuL399cG-33" style="edgeStyle=none;curved=1;rounded=0;orthogonalLoop=1;jettySize=auto;html=1;exitX=1;exitY=0.5;exitDx=0;exitDy=0;fontSize=12;startSize=8;endSize=8;" edge="1" parent="1" source="wO_XfWsJBFEoIuL399cG-31" target="wO_XfWsJBFEoIuL399cG-31">
          <mxGeometry relative="1" as="geometry" />
        </mxCell>
      </root>
    </mxGraphModel>
  </diagram>
</mxfile>
